# Blender 4.1.1
# www.blender.org
mtllib 1964 Dalek Plunger 2 Final.mtl
o DIOE_Dalek_Plunger_Section_1.001
v -0.005258 0.012695 0.815542
v -0.009716 0.009716 0.815542
v -0.012695 0.005258 0.815542
v -0.012695 -0.005258 0.815542
v -0.009716 -0.009716 0.815542
v -0.005258 -0.012695 0.815542
v -0.000000 -0.013741 0.815542
v 0.005258 -0.012695 0.815542
v 0.009716 -0.009716 0.815542
v 0.012695 -0.005258 0.815542
v 0.012695 0.005258 0.815542
v 0.009716 0.009716 0.815542
v 0.005258 0.012695 0.815542
v -0.000000 0.013740 0.815542
v -0.005258 0.012695 0.326851
v -0.009716 0.009716 0.326851
v -0.012695 0.005258 0.326851
v -0.012695 -0.005258 0.326851
v -0.009716 -0.009716 0.326851
v -0.005258 -0.012695 0.326851
v -0.000000 -0.013741 0.326851
v 0.005258 -0.012695 0.326851
v 0.009716 -0.009716 0.326851
v 0.012695 -0.005258 0.326851
v 0.012695 0.005258 0.326851
v 0.009716 0.009716 0.326851
v 0.005258 0.012695 0.326851
v -0.000000 0.013740 0.326851
v -0.013741 -0.000000 0.815542
v 0.013741 -0.000000 0.815542
v -0.013741 -0.000000 0.326851
v 0.013741 -0.000000 0.326851
v 0.000000 -0.000000 0.746871
vn -0.9225 0.3861 -0.0000
vn -0.7031 0.7111 -0.0000
vn 0.9225 -0.3861 -0.0000
vn 0.7030 -0.7111 -0.0000
vn -1.0000 -0.0000 -0.0000
vn 1.0000 -0.0000 -0.0000
vn -0.9225 -0.3861 -0.0000
vn 0.9225 0.3861 -0.0000
vn -0.7030 -0.7111 -0.0000
vn 0.7031 0.7111 -0.0000
vn -0.3785 -0.9256 -0.0000
vn 0.3785 0.9256 -0.0000
vn -0.0000 -1.0000 -0.0000
vn -0.0000 1.0000 -0.0000
vn 0.3785 -0.9256 -0.0000
vn -0.3785 0.9256 -0.0000
vn 0.3687 -0.9086 0.1962
vn -0.0000 -0.0000 1.0000
vn -0.0000 -0.9806 0.1962
vn -0.3687 -0.9086 0.1962
vn -0.6868 -0.6998 0.1962
vn -0.9036 -0.3809 0.1962
vn -0.9806 -0.0000 0.1962
vn -0.9036 0.3809 0.1962
vn -0.6868 0.6998 0.1962
vn -0.3687 0.9086 0.1962
vn -0.0000 0.9806 0.1962
vn 0.3687 0.9086 0.1962
vn 0.6868 0.6998 0.1962
vn 0.9036 0.3808 0.1962
vn 0.9806 -0.0000 0.1962
vn 0.9036 -0.3809 0.1962
vn 0.6868 -0.6998 0.1962
vt 0.592033 0.377240
vt 0.593526 0.255250
vt 0.592033 0.255250
vt 0.603631 0.377240
vt 0.605124 0.255250
vt 0.603631 0.255250
vt 0.590483 0.377240
vt 0.590483 0.255250
vt 0.602081 0.377240
vt 0.602081 0.255250
vt 0.588934 0.377240
vt 0.588934 0.255250
vt 0.600532 0.377240
vt 0.600532 0.255250
vt 0.587441 0.377240
vt 0.587441 0.255250
vt 0.599039 0.377240
vt 0.599039 0.255250
vt 0.586032 0.377240
vt 0.586032 0.255250
vt 0.597630 0.377240
vt 0.597630 0.255250
vt 0.584684 0.377240
vt 0.584684 0.255250
vt 0.596282 0.377240
vt 0.596282 0.255250
vt 0.606533 0.377240
vt 0.607880 0.255250
vt 0.606533 0.255250
vt 0.593526 0.377240
vt 0.594935 0.255250
vt 0.594935 0.377240
vt 0.605124 0.377240
vt 0.616301 0.401740
vt 0.614972 0.393622
vt 0.613318 0.401712
vt 0.607880 0.377240
vt 0.610564 0.400567
vt 0.608357 0.398384
vt 0.607089 0.395378
vt 0.607089 0.392010
vt 0.608411 0.388912
vt 0.610757 0.386646
vt 0.613643 0.385504
vt 0.616626 0.385531
vt 0.619380 0.386677
vt 0.621587 0.388859
vt 0.622855 0.391865
vt 0.622855 0.395233
vt 0.621534 0.398331
vt 0.619187 0.400598
s 1
usemtl Material
f 3/1/1 16/2/2 17/3/1
f 10/4/3 23/5/4 24/6/3
f 29/7/5 17/3/1 31/8/5
f 30/9/6 24/6/3 32/10/6
f 4/11/7 31/8/5 18/12/7
f 11/13/8 32/10/6 25/14/8
f 5/15/9 18/12/7 19/16/9
f 12/17/10 25/14/8 26/18/10
f 6/19/11 19/16/9 20/20/11
f 13/21/12 26/18/10 27/22/12
f 7/23/13 20/20/11 21/24/13
f 14/25/14 27/22/12 28/26/14
f 8/27/15 21/28/13 22/29/15
f 2/30/2 15/31/16 16/2/2
f 1/32/16 28/26/14 15/31/16
f 9/33/4 22/29/15 23/5/4
f 1/34/17 33/35/18 14/36/19
f 3/1/1 2/30/2 16/2/2
f 10/4/3 9/33/4 23/5/4
f 29/7/5 3/1/1 17/3/1
f 30/9/6 10/4/3 24/6/3
f 4/11/7 29/7/5 31/8/5
f 11/13/8 30/9/6 32/10/6
f 5/15/9 4/11/7 18/12/7
f 12/17/10 11/13/8 25/14/8
f 6/19/11 5/15/9 19/16/9
f 13/21/12 12/17/10 26/18/10
f 7/23/13 6/19/11 20/20/11
f 14/25/14 13/21/12 27/22/12
f 8/27/15 7/37/13 21/28/13
f 2/30/2 1/32/16 15/31/16
f 1/32/16 14/25/14 28/26/14
f 9/33/4 8/27/15 22/29/15
f 14/36/19 33/35/18 13/38/20
f 13/38/20 33/35/18 12/39/21
f 12/39/21 33/35/18 11/40/22
f 11/40/22 33/35/18 30/41/23
f 30/41/23 33/35/18 10/42/24
f 10/42/24 33/35/18 9/43/25
f 9/43/25 33/35/18 8/44/26
f 8/44/26 33/35/18 7/45/27
f 7/45/27 33/35/18 6/46/28
f 6/46/28 33/35/18 5/47/29
f 5/47/29 33/35/18 4/48/30
f 4/48/30 33/35/18 29/49/31
f 29/49/31 33/35/18 3/50/32
f 3/50/32 33/35/18 2/51/33
f 2/51/33 33/35/18 1/34/17
