# Blender 4.1.1
# www.blender.org
mtllib 1964 Dalek Plunger 1 Final.mtl
o DIOE_Dalek_Plunger
v -0.000000 0.028469 0.042607
v -0.000000 0.042607 0.028469
v -0.000000 0.050259 0.009997
v -0.000000 0.050259 -0.009997
v -0.000000 0.042607 -0.028469
v -0.007069 0.035538 -0.036235
v -0.003826 0.009236 0.050259
v -0.010895 0.026302 0.042607
v -0.016305 0.039364 0.028469
v -0.019233 0.046433 0.009997
v -0.019233 0.046433 -0.009997
v -0.016305 0.039364 -0.028469
v -0.020131 0.030128 -0.036235
v -0.007069 0.007069 0.050259
v -0.020131 0.020131 0.042607
v -0.030128 0.030128 0.028469
v -0.035538 0.035538 0.009997
v -0.035538 0.035538 -0.009997
v -0.030128 0.030128 -0.028469
v -0.030128 0.020131 -0.036235
v -0.009236 0.003826 0.050259
v -0.026302 0.010895 0.042607
v -0.039364 0.016305 0.028469
v -0.046433 0.019233 0.009997
v -0.046433 0.019233 -0.009997
v -0.039364 0.016305 -0.028469
v -0.035538 0.007069 -0.036234
v -0.009997 -0.000000 0.050259
v -0.028469 -0.000000 0.042607
v -0.042607 -0.000000 0.028469
v -0.050259 -0.000000 0.009997
v -0.050259 -0.000000 -0.009997
v -0.042607 -0.000000 -0.028469
v -0.035538 -0.007069 -0.036235
v -0.009236 -0.003826 0.050259
v -0.026302 -0.010895 0.042607
v -0.039364 -0.016305 0.028469
v -0.046433 -0.019233 0.009997
v -0.046433 -0.019233 -0.009997
v -0.039364 -0.016305 -0.028469
v -0.030128 -0.020131 -0.036235
v -0.007069 -0.007069 0.050259
v -0.020131 -0.020131 0.042607
v -0.030128 -0.030128 0.028469
v -0.035538 -0.035538 0.009997
v -0.035538 -0.035538 -0.009997
v -0.030128 -0.030128 -0.028469
v -0.020131 -0.030128 -0.036235
v -0.003826 -0.009236 0.050259
v -0.010895 -0.026302 0.042607
v -0.016305 -0.039364 0.028469
v -0.019233 -0.046433 0.009997
v -0.019233 -0.046433 -0.009997
v -0.016305 -0.039364 -0.028469
v -0.007069 -0.035538 -0.036235
v -0.000000 -0.009997 0.050259
v -0.000000 -0.028469 0.042607
v -0.000000 -0.042607 0.028469
v -0.000000 -0.050259 0.009997
v -0.000000 -0.050259 -0.009997
v -0.000000 -0.042607 -0.028469
v 0.007069 -0.035538 -0.036235
v 0.003826 -0.009236 0.050259
v 0.010895 -0.026302 0.042607
v 0.016305 -0.039364 0.028469
v 0.019233 -0.046433 0.009997
v 0.019233 -0.046433 -0.009997
v 0.016305 -0.039364 -0.028469
v 0.020131 -0.030128 -0.036235
v 0.007069 -0.007069 0.050259
v 0.020131 -0.020131 0.042607
v 0.030128 -0.030128 0.028469
v 0.035538 -0.035538 0.009997
v 0.035538 -0.035538 -0.009997
v 0.030128 -0.030128 -0.028469
v 0.030128 -0.020131 -0.036235
v 0.009236 -0.003826 0.050259
v 0.026302 -0.010895 0.042607
v 0.039364 -0.016305 0.028469
v 0.046433 -0.019233 0.009997
v 0.046433 -0.019233 -0.009997
v 0.039364 -0.016305 -0.028469
v 0.035538 -0.007069 -0.036235
v 0.009997 -0.000000 0.050259
v 0.028469 -0.000000 0.042607
v 0.042607 -0.000000 0.028469
v 0.050259 -0.000000 0.009997
v 0.050259 -0.000000 -0.009997
v 0.042607 -0.000000 -0.028469
v 0.035538 0.007069 -0.036234
v 0.009236 0.003826 0.050259
v 0.026302 0.010895 0.042607
v 0.039364 0.016305 0.028469
v 0.046433 0.019233 0.009997
v 0.046433 0.019233 -0.009997
v 0.039364 0.016305 -0.028469
v 0.030128 0.020131 -0.036235
v 0.007069 0.007069 0.050259
v 0.020131 0.020131 0.042607
v 0.030128 0.030128 0.028469
v 0.035538 0.035538 0.009997
v 0.035538 0.035538 -0.009997
v 0.030128 0.030128 -0.028469
v 0.020131 0.030128 -0.036235
v 0.003826 0.009236 0.050259
v 0.010895 0.026302 0.042607
v 0.016305 0.039364 0.028469
v 0.019233 0.046433 0.009997
v 0.019233 0.046433 -0.009997
v 0.016305 0.039364 -0.028469
v 0.007069 0.035538 -0.036235
v -0.000000 0.009997 0.050259
v -0.007966 0.019231 0.506046
v -0.014719 0.014719 0.506046
v -0.019231 0.007966 0.506046
v -0.020815 -0.000000 0.506046
v -0.019231 -0.007966 0.506046
v -0.014719 -0.014719 0.506046
v -0.007966 -0.019231 0.506046
v -0.000000 -0.020815 0.506046
v 0.007966 -0.019231 0.506046
v 0.014719 -0.014719 0.506046
v 0.019231 -0.007966 0.506046
v 0.020815 -0.000000 0.506046
v 0.019231 0.007966 0.506046
v 0.014719 0.014719 0.506046
v 0.007966 0.019231 0.506046
v -0.000000 0.020815 0.506046
v -0.007966 0.019231 0.044658
v -0.014719 0.014719 0.044658
v -0.019231 0.007966 0.044658
v -0.020815 -0.000000 0.044658
v -0.019231 -0.007966 0.044658
v -0.014719 -0.014719 0.044658
v -0.007966 -0.019231 0.044658
v -0.000000 -0.020815 0.044658
v 0.007966 -0.019231 0.044658
v 0.014719 -0.014719 0.044658
v 0.019231 -0.007966 0.044658
v 0.020815 -0.000000 0.044658
v 0.019231 0.007966 0.044658
v 0.014719 0.014719 0.044658
v 0.007966 0.019231 0.044658
v -0.000000 0.020815 0.044658
v -0.000000 -0.000000 0.437374
vn -0.5275 0.2183 0.8210
vn -0.2745 0.2666 0.9239
vn -0.4061 0.4056 0.8189
vn -0.6881 0.7005 -0.1894
vn -0.3297 0.8024 -0.4975
vn -0.6099 0.6143 -0.5006
vn -0.9047 0.3810 0.1907
vn -0.9047 0.3810 -0.1907
vn 0.3697 0.9100 -0.1877
vn -0.0000 0.9824 0.1868
vn 0.3697 0.9100 0.1877
vn -0.3697 0.9100 0.1877
vn -0.0000 0.9824 -0.1868
vn -0.3697 0.9100 -0.1877
vn 0.1508 0.7524 -0.6412
vn -0.1508 0.7524 -0.6412
vn -0.0000 0.8682 -0.4962
vn -0.7976 0.3325 -0.5033
vn -0.4293 0.6379 -0.6393
vn -0.7733 0.3238 0.5451
vn -0.5908 0.5974 0.5423
vn -0.9816 -0.0000 -0.1912
vn -0.8635 -0.0000 -0.5043
vn -0.9816 -0.0000 0.1912
vn -0.5698 -0.0000 0.8218
vn -0.3551 0.1427 0.9239
vn -0.6424 0.4264 -0.6368
vn -0.8377 -0.0000 0.5461
vn -0.7733 -0.3238 0.5451
vn -0.9047 -0.3810 0.1907
vn -0.7976 -0.3325 -0.5032
vn -0.9047 -0.3810 -0.1907
vn -0.3551 -0.1427 0.9239
vn -0.5275 -0.2183 0.8210
vn -0.7578 0.1498 -0.6351
vn -0.6099 -0.6143 -0.5006
vn -0.6881 -0.7005 0.1894
vn -0.6881 -0.7005 -0.1894
vn -0.2745 -0.2666 0.9239
vn -0.4061 -0.4056 0.8189
vn -0.5908 -0.5974 0.5423
vn -0.7578 -0.1498 -0.6351
vn -0.3697 -0.9100 0.1877
vn -0.3697 -0.9100 -0.1877
vn -0.3297 -0.8024 -0.4975
vn -0.1500 -0.3521 0.9239
vn -0.2213 -0.5336 0.8163
vn -0.3193 -0.7796 0.5388
vn -0.6424 -0.4264 -0.6368
vn -0.0000 -0.9824 0.1868
vn -0.0000 -0.9824 -0.1868
vn -0.0000 -0.8682 -0.4961
vn -0.0000 -0.3827 0.9239
vn -0.0000 -0.5794 0.8151
vn -0.0000 -0.8435 0.5371
vn -0.4293 -0.6379 -0.6393
vn 0.3697 -0.9100 -0.1877
vn 0.3297 -0.8024 -0.4975
vn 0.2213 -0.5336 0.8163
vn 0.3697 -0.9100 0.1877
vn -0.1508 -0.7524 -0.6412
vn 0.3193 -0.7796 0.5388
vn 0.6881 -0.7005 -0.1894
vn 0.6099 -0.6143 -0.5006
vn 0.4061 -0.4056 0.8189
vn 0.1500 -0.3521 0.9239
vn 0.6881 -0.7005 0.1894
vn 0.5908 -0.5974 0.5423
vn 0.1508 -0.7524 -0.6412
vn 0.9047 -0.3810 -0.1907
vn 0.7976 -0.3325 -0.5033
vn 0.5275 -0.2183 0.8210
vn 0.2745 -0.2666 0.9239
vn 0.9047 -0.3810 0.1907
vn 0.7733 -0.3238 0.5451
vn 0.4293 -0.6379 -0.6393
vn 0.9816 -0.0000 -0.1912
vn 0.8635 -0.0000 -0.5043
vn 0.5698 -0.0000 0.8218
vn 0.3551 -0.1427 0.9239
vn 0.9816 -0.0000 0.1912
vn 0.8377 -0.0000 0.5461
vn 0.6424 -0.4264 -0.6368
vn 0.3551 0.1427 0.9239
vn 0.5275 0.2183 0.8210
vn 0.7733 0.3238 0.5451
vn 0.9047 0.3810 0.1907
vn 0.9047 0.3810 -0.1907
vn 0.7976 0.3325 -0.5033
vn 0.7578 -0.1498 -0.6351
vn 0.2745 0.2666 0.9239
vn 0.4061 0.4056 0.8189
vn 0.6881 0.7005 0.1894
vn 0.6881 0.7005 -0.1894
vn 0.5908 0.5974 0.5423
vn 0.6099 0.6143 -0.5006
vn 0.7578 0.1498 -0.6351
vn 0.1500 0.3521 0.9239
vn 0.2213 0.5336 0.8163
vn 0.3193 0.7796 0.5388
vn 0.3297 0.8024 -0.4975
vn 0.6424 0.4264 -0.6368
vn -0.0000 0.3827 0.9239
vn -0.0000 0.5793 0.8151
vn -0.0000 0.8435 0.5371
vn 0.4293 0.6379 -0.6393
vn -0.6881 0.7005 0.1894
vn -0.3193 0.7796 0.5388
vn -0.2213 0.5336 0.8163
vn -0.1500 0.3521 0.9239
vn 0.9225 0.3861 -0.0000
vn 0.7031 0.7111 -0.0000
vn -0.7030 -0.7111 -0.0000
vn -0.3785 -0.9256 -0.0000
vn 0.3785 0.9256 -0.0000
vn -0.0000 -1.0000 -0.0000
vn -0.0000 1.0000 -0.0000
vn 0.3785 -0.9256 -0.0000
vn -0.3785 0.9256 -0.0000
vn -0.7030 0.7111 -0.0000
vn -0.7031 0.7111 -0.0000
vn 0.7030 -0.7111 -0.0000
vn -0.9225 0.3861 -0.0000
vn 0.9225 -0.3861 -0.0000
vn -1.0000 -0.0000 -0.0000
vn 1.0000 -0.0000 -0.0000
vn -0.9225 -0.3861 -0.0000
vn 0.3588 -0.8872 0.2901
vn 0.6692 -0.6841 0.2901
vn -0.0000 -0.0000 1.0000
vn 0.8814 -0.3727 0.2901
vn 0.9570 -0.0000 0.2901
vn 0.8814 0.3727 0.2901
vn 0.6692 0.6841 0.2901
vn 0.3588 0.8872 0.2901
vn -0.0000 0.9570 0.2901
vn -0.3588 0.8872 0.2901
vn -0.6692 0.6841 0.2901
vn -0.8814 0.3727 0.2901
vn -0.9570 -0.0000 0.2901
vn -0.8814 -0.3727 0.2901
vn -0.6692 -0.6841 0.2901
vn -0.3588 -0.8872 0.2901
vn -0.0000 -0.9570 0.2901
vn -0.3827 -0.0000 0.9239
vn 0.3827 -0.0000 0.9239
vt 0.832268 0.252030
vt 0.827982 0.247719
vt 0.833609 0.249791
vt 0.844398 0.253296
vt 0.850078 0.250198
vt 0.849027 0.254897
vt 0.839236 0.255775
vt 0.842799 0.257502
vt 0.845412 0.241755
vt 0.842055 0.245431
vt 0.841804 0.242176
vt 0.841732 0.248678
vt 0.845545 0.245553
vt 0.845274 0.249318
vt 0.853927 0.243073
vt 0.853785 0.248374
vt 0.850523 0.245646
vt 0.847229 0.259689
vt 0.852788 0.253592
vt 0.835854 0.254057
vt 0.837415 0.251065
vt 0.840446 0.261839
vt 0.844689 0.264406
vt 0.836875 0.259512
vt 0.830478 0.254238
vt 0.827311 0.248919
vt 0.851055 0.258691
vt 0.833679 0.257078
vt 0.830998 0.260030
vt 0.833947 0.263161
vt 0.841705 0.268959
vt 0.837409 0.265997
vt 0.825258 0.250893
vt 0.828225 0.256265
vt 0.848684 0.263598
vt 0.838430 0.273219
vt 0.830531 0.266587
vt 0.833955 0.269988
vt 0.823981 0.251505
vt 0.825563 0.257960
vt 0.827782 0.262741
vt 0.845886 0.268302
vt 0.826626 0.269960
vt 0.830267 0.273946
vt 0.835211 0.277394
vt 0.822651 0.251775
vt 0.822426 0.259069
vt 0.823916 0.265106
vt 0.842825 0.272787
vt 0.821717 0.273495
vt 0.826292 0.278410
vt 0.832325 0.282102
vt 0.821330 0.251594
vt 0.818692 0.259199
vt 0.818904 0.266926
vt 0.839702 0.277033
vt 0.830670 0.216275
vt 0.832913 0.207879
vt 0.835830 0.212792
vt 0.822485 0.231376
vt 0.821309 0.238950
vt 0.818692 0.231211
vt 0.826859 0.220342
vt 0.818961 0.223353
vt 0.821868 0.216662
vt 0.826623 0.211630
vt 0.836923 0.281240
vt 0.824057 0.225251
vt 0.834448 0.220416
vt 0.839092 0.217159
vt 0.825660 0.232533
vt 0.822651 0.238777
vt 0.830832 0.223762
vt 0.827971 0.227688
vt 0.835114 0.285857
vt 0.837885 0.224549
vt 0.842365 0.221610
vt 0.828340 0.234287
vt 0.823997 0.239062
vt 0.834273 0.227365
vt 0.837662 0.208838
vt 0.831209 0.230503
vt 0.840475 0.213242
vt 0.840887 0.228870
vt 0.845307 0.226365
vt 0.830592 0.236372
vt 0.825285 0.239693
vt 0.837168 0.231153
vt 0.833875 0.233553
vt 0.843611 0.217697
vt 0.827340 0.241706
vt 0.832365 0.238629
vt 0.836010 0.236653
vt 0.839439 0.235011
vt 0.843169 0.233357
vt 0.847762 0.231280
vt 0.846649 0.222395
vt 0.828005 0.242920
vt 0.833679 0.240904
vt 0.840967 0.238719
vt 0.844665 0.237700
vt 0.837522 0.239693
vt 0.849419 0.236246
vt 0.849387 0.227319
vt 0.828398 0.244134
vt 0.834473 0.243147
vt 0.838409 0.242592
vt 0.850283 0.241057
vt 0.851646 0.232449
vt 0.828481 0.245325
vt 0.834715 0.245361
vt 0.838702 0.245396
vt 0.853189 0.237742
vt 0.840823 0.252104
vt 0.838355 0.248192
vt 0.834437 0.247568
vt 0.828386 0.246513
vt 0.592727 0.248506
vt 0.594989 0.133332
vt 0.594989 0.248506
vt 0.612558 0.248506
vt 0.614693 0.133332
vt 0.614693 0.248506
vt 0.597124 0.133332
vt 0.597124 0.248506
vt 0.616735 0.133332
vt 0.616735 0.248506
vt 0.599165 0.133332
vt 0.599165 0.248506
vt 0.581595 0.248506
vt 0.583636 0.133332
vt 0.583636 0.248506
vt 0.601206 0.248506
vt 0.603341 0.133332
vt 0.603341 0.248506
vt 0.601206 0.133332
vt 0.585771 0.133332
vt 0.585771 0.248506
vt 0.605603 0.133332
vt 0.605603 0.248506
vt 0.588033 0.133332
vt 0.588033 0.248506
vt 0.607950 0.133332
vt 0.607950 0.248506
vt 0.590380 0.133332
vt 0.590380 0.248506
vt 0.610297 0.133332
vt 0.610297 0.248506
vt 0.592727 0.133332
vt 0.612558 0.133332
vt 0.590240 0.385512
vt 0.594116 0.385504
vt 0.592575 0.395556
vt 0.597879 0.387044
vt 0.600855 0.389998
vt 0.602462 0.393870
vt 0.602462 0.397937
vt 0.600986 0.401521
vt 0.598355 0.404167
vt 0.594910 0.405600
vt 0.591034 0.405608
vt 0.587271 0.404068
vt 0.584295 0.401114
vt 0.582688 0.397242
vt 0.582688 0.393175
vt 0.584164 0.389591
vt 0.586795 0.386945
vt 0.826429 0.250052
vt 0.826461 0.240554
vt 0.581595 0.133332
s 1
usemtl Material
f 22/1/1 14/2/2 15/3/3
f 18/4/4 12/5/5 19/6/6
f 24/7/7 18/4/4 25/8/8
f 109/9/9 3/10/10 108/11/11
f 10/12/12 4/13/13 11/14/14
f 111/15/15 6/16/16 5/17/17
f 25/8/8 19/6/6 26/18/18
f 6/16/16 12/5/5 5/17/17
f 12/5/5 6/16/16 13/19/19
f 13/19/19 19/6/6 12/5/5
f 23/20/20 15/3/3 16/21/21
f 32/22/22 26/18/18 33/23/23
f 31/24/24 23/20/20 24/7/7
f 32/22/22 24/7/7 25/8/8
f 29/25/25 21/26/26 22/1/1
f 19/6/6 13/19/19 20/27/27
f 20/27/27 26/18/18 19/6/6
f 30/28/28 22/1/1 23/20/20
f 37/29/29 31/24/24 38/30/30
f 40/31/31 32/22/22 33/23/23
f 39/32/32 31/24/24 32/22/22
f 35/33/33 29/25/25 36/34/34
f 26/18/18 20/27/27 27/35/35
f 27/35/35 33/23/23 26/18/18
f 36/34/34 30/28/28 37/29/29
f 47/36/36 39/32/32 40/31/31
f 45/37/37 39/32/32 46/38/38
f 42/39/39 36/34/34 43/40/40
f 44/41/41 38/30/30 45/37/37
f 33/23/23 27/35/35 34/42/42
f 34/42/42 40/31/31 33/23/23
f 43/40/40 37/29/29 44/41/41
f 52/43/43 46/38/38 53/44/44
f 54/45/45 46/38/38 47/36/36
f 49/46/46 43/40/40 50/47/47
f 51/48/48 45/37/37 52/43/43
f 40/31/31 34/42/42 41/49/49
f 41/49/49 47/36/36 40/31/31
f 50/47/47 44/41/41 51/48/48
f 59/50/50 53/44/44 60/51/51
f 61/52/52 53/44/44 54/45/45
f 56/53/53 50/47/47 57/54/54
f 58/55/55 52/43/43 59/50/50
f 48/56/56 54/45/45 47/36/36
f 57/54/54 51/48/48 58/55/55
f 47/36/36 41/49/49 48/56/56
f 67/57/57 61/58/52 68/59/58
f 64/60/59 56/61/53 57/62/54
f 66/63/60 58/64/55 59/65/50
f 67/57/57 59/65/50 60/66/51
f 55/67/61 61/52/52 54/45/45
f 65/68/62 57/62/54 58/64/55
f 54/45/45 48/56/56 55/67/61
f 74/69/63 68/59/58 75/70/64
f 71/71/65 63/72/66 64/60/59
f 73/73/67 65/68/62 66/63/60
f 73/73/67 67/57/57 74/69/63
f 72/74/68 64/60/59 65/68/62
f 61/52/52 55/67/61 62/75/69
f 81/76/70 75/70/64 82/77/71
f 78/78/72 70/79/73 71/71/65
f 80/80/74 72/74/68 73/73/67
f 62/81/69 68/59/58 61/58/52
f 80/80/74 74/69/63 81/76/70
f 79/82/75 71/71/65 72/74/68
f 68/59/58 62/81/69 69/83/76
f 88/84/77 82/77/71 89/85/78
f 85/86/79 77/87/80 78/78/72
f 87/88/81 79/82/75 80/80/74
f 69/83/76 75/70/64 68/59/58
f 87/88/81 81/76/70 88/84/77
f 86/89/82 78/78/72 79/82/75
f 75/70/64 69/83/76 76/90/83
f 76/90/83 82/77/71 75/70/64
f 91/91/84 85/86/79 92/92/85
f 93/93/86 87/88/81 94/94/87
f 94/94/87 88/84/77 95/95/88
f 96/96/89 88/84/77 89/85/78
f 92/92/85 86/89/82 93/93/86
f 82/77/71 76/90/83 83/97/90
f 83/97/90 89/85/78 82/77/71
f 98/98/91 92/92/85 99/99/92
f 101/100/93 95/95/88 102/101/94
f 100/102/95 94/94/87 101/100/93
f 103/103/96 95/95/88 96/96/89
f 89/85/78 83/97/90 90/104/97
f 90/104/97 96/96/89 89/85/78
f 99/99/92 93/93/86 100/102/95
f 105/105/98 99/99/92 106/106/99
f 108/11/11 102/101/94 109/9/9
f 107/107/100 101/100/93 108/11/11
f 110/108/101 102/101/94 103/103/96
f 96/96/89 90/104/97 97/109/102
f 97/109/102 103/103/96 96/96/89
f 106/106/99 100/102/95 107/107/100
f 112/110/103 106/106/99 1/111/104
f 5/17/17 109/9/9 110/108/101
f 108/11/11 2/112/105 107/107/100
f 111/15/15 5/17/17 110/108/101
f 103/103/96 97/109/102 104/113/106
f 104/113/106 110/108/101 103/103/96
f 107/107/100 1/111/104 106/106/99
f 17/114/107 9/115/108 10/12/12
f 110/108/101 104/113/106 111/15/15
f 10/12/12 2/112/105 3/10/10
f 112/110/103 8/116/109 7/117/110
f 9/115/108 1/111/104 2/112/105
f 15/3/3 7/117/110 8/116/109
f 16/21/21 8/116/109 9/115/108
f 24/7/7 16/21/21 17/114/107
f 17/114/107 11/14/14 18/4/4
f 5/17/17 11/14/14 4/13/13
f 125/118/111 142/119/112 126/120/112
f 118/121/113 135/122/114 119/123/114
f 126/120/112 143/124/115 127/125/115
f 119/123/114 136/126/116 120/127/116
f 127/125/115 144/128/117 128/129/117
f 120/130/116 137/131/118 121/132/118
f 113/133/119 130/134/120 114/135/121
f 128/129/117 129/136/119 113/133/119
f 121/132/118 138/137/122 122/138/122
f 114/135/121 131/139/123 115/140/123
f 122/138/122 139/141/124 123/142/124
f 115/140/123 132/143/125 116/144/125
f 123/142/124 140/145/126 124/146/126
f 116/144/125 133/147/127 117/148/127
f 124/146/126 141/149/111 125/118/111
f 117/148/127 134/150/113 118/121/113
f 113/151/128 114/152/129 145/153/130
f 114/152/129 115/154/131 145/153/130
f 115/154/131 116/155/132 145/153/130
f 116/155/132 117/156/133 145/153/130
f 117/156/133 118/157/134 145/153/130
f 118/157/134 119/158/135 145/153/130
f 119/158/135 120/159/136 145/153/130
f 120/159/136 121/160/137 145/153/130
f 121/160/137 122/161/138 145/153/130
f 122/161/138 123/162/139 145/153/130
f 123/162/139 124/163/140 145/153/130
f 124/163/140 125/164/141 145/153/130
f 125/164/141 126/165/142 145/153/130
f 126/165/142 127/166/143 145/153/130
f 127/166/143 128/167/144 145/153/130
f 128/167/144 113/151/128 145/153/130
f 22/1/1 21/26/26 14/2/2
f 18/4/4 11/14/14 12/5/5
f 24/7/7 17/114/107 18/4/4
f 109/9/9 4/13/13 3/10/10
f 10/12/12 3/10/10 4/13/13
f 25/8/8 18/4/4 19/6/6
f 23/20/20 22/1/1 15/3/3
f 32/22/22 25/8/8 26/18/18
f 31/24/24 30/28/28 23/20/20
f 32/22/22 31/24/24 24/7/7
f 29/25/25 28/168/145 21/26/26
f 30/28/28 29/25/25 22/1/1
f 37/29/29 30/28/28 31/24/24
f 40/31/31 39/32/32 32/22/22
f 39/32/32 38/30/30 31/24/24
f 35/33/33 28/168/145 29/25/25
f 36/34/34 29/25/25 30/28/28
f 47/36/36 46/38/38 39/32/32
f 45/37/37 38/30/30 39/32/32
f 42/39/39 35/33/33 36/34/34
f 44/41/41 37/29/29 38/30/30
f 43/40/40 36/34/34 37/29/29
f 52/43/43 45/37/37 46/38/38
f 54/45/45 53/44/44 46/38/38
f 49/46/46 42/39/39 43/40/40
f 51/48/48 44/41/41 45/37/37
f 50/47/47 43/40/40 44/41/41
f 59/50/50 52/43/43 53/44/44
f 61/52/52 60/51/51 53/44/44
f 56/53/53 49/46/46 50/47/47
f 58/55/55 51/48/48 52/43/43
f 57/54/54 50/47/47 51/48/48
f 67/57/57 60/66/51 61/58/52
f 64/60/59 63/72/66 56/61/53
f 66/63/60 65/68/62 58/64/55
f 67/57/57 66/63/60 59/65/50
f 65/68/62 64/60/59 57/62/54
f 74/69/63 67/57/57 68/59/58
f 71/71/65 70/79/73 63/72/66
f 73/73/67 72/74/68 65/68/62
f 73/73/67 66/63/60 67/57/57
f 72/74/68 71/71/65 64/60/59
f 81/76/70 74/69/63 75/70/64
f 78/78/72 77/87/80 70/79/73
f 80/80/74 79/82/75 72/74/68
f 80/80/74 73/73/67 74/69/63
f 79/82/75 78/78/72 71/71/65
f 88/84/77 81/76/70 82/77/71
f 85/86/79 84/169/146 77/87/80
f 87/88/81 86/89/82 79/82/75
f 87/88/81 80/80/74 81/76/70
f 86/89/82 85/86/79 78/78/72
f 91/91/84 84/169/146 85/86/79
f 93/93/86 86/89/82 87/88/81
f 94/94/87 87/88/81 88/84/77
f 96/96/89 95/95/88 88/84/77
f 92/92/85 85/86/79 86/89/82
f 98/98/91 91/91/84 92/92/85
f 101/100/93 94/94/87 95/95/88
f 100/102/95 93/93/86 94/94/87
f 103/103/96 102/101/94 95/95/88
f 99/99/92 92/92/85 93/93/86
f 105/105/98 98/98/91 99/99/92
f 108/11/11 101/100/93 102/101/94
f 107/107/100 100/102/95 101/100/93
f 110/108/101 109/9/9 102/101/94
f 106/106/99 99/99/92 100/102/95
f 112/110/103 105/105/98 106/106/99
f 5/17/17 4/13/13 109/9/9
f 108/11/11 3/10/10 2/112/105
f 107/107/100 2/112/105 1/111/104
f 17/114/107 16/21/21 9/115/108
f 10/12/12 9/115/108 2/112/105
f 112/110/103 1/111/104 8/116/109
f 9/115/108 8/116/109 1/111/104
f 15/3/3 14/2/2 7/117/110
f 16/21/21 15/3/3 8/116/109
f 24/7/7 23/20/20 16/21/21
f 17/114/107 10/12/12 11/14/14
f 5/17/17 12/5/5 11/14/14
f 125/118/111 141/149/111 142/119/112
f 118/121/113 134/150/113 135/122/114
f 126/120/112 142/119/112 143/124/115
f 119/123/114 135/122/114 136/126/116
f 127/125/115 143/124/115 144/128/117
f 120/130/116 136/170/116 137/131/118
f 113/133/119 129/136/119 130/134/120
f 128/129/117 144/128/117 129/136/119
f 121/132/118 137/131/118 138/137/122
f 114/135/121 130/134/120 131/139/123
f 122/138/122 138/137/122 139/141/124
f 115/140/123 131/139/123 132/143/125
f 123/142/124 139/141/124 140/145/126
f 116/144/125 132/143/125 133/147/127
f 124/146/126 140/145/126 141/149/111
f 117/148/127 133/147/127 134/150/113
